inDegrees=no
num_controls=7
num_derivatives=13
num_iterations=152
num_multipliers=7
num_parameters=0
num_slacks=7
num_states=26
objective=0.476745
objective_accelerations=0.044514
objective_balance=0.003623
objective_effort=0.040649
objective_height=0.382299
objective_ligament=0.005660
solver_duration=2103.275097
status=Solve_Succeeded
success=true
DataType=double
version=3
OpenSimVersion=4.5
endheader
time	/jointset/ground_pelvis/pelvis_tilt/value	/jointset/ground_pelvis/pelvis_tx/value	/jointset/ground_pelvis/pelvis_ty/value	/jointset/hip_l/hip_flexion_l/value	/jointset/hip_l/hip_adduction_l/value	/jointset/hip_l/hip_rotation_l/value	/jointset/back/lumbar_extension/value	/jointset/patellofemoral_l/patellar_flexion_l/value	/jointset/knee_l/knee_flexion_l/value	/jointset/knee_l/knee_adduction_l/value	/jointset/knee_l/knee_rotation_l/value	/jointset/ankle_l/ankle_angle_l/value	/jointset/subtalar_l/subtalar_angle_l/value	/jointset/ground_pelvis/pelvis_tilt/speed	/jointset/ground_pelvis/pelvis_tx/speed	/jointset/ground_pelvis/pelvis_ty/speed	/jointset/hip_l/hip_flexion_l/speed	/jointset/hip_l/hip_adduction_l/speed	/jointset/hip_l/hip_rotation_l/speed	/jointset/back/lumbar_extension/speed	/jointset/patellofemoral_l/patellar_flexion_l/speed	/jointset/knee_l/knee_flexion_l/speed	/jointset/knee_l/knee_adduction_l/speed	/jointset/knee_l/knee_rotation_l/speed	/jointset/ankle_l/ankle_angle_l/speed	/jointset/subtalar_l/subtalar_angle_l/speed	/forceset/tau_hip_flexion_l	/forceset/tau_hip_adduction_l	/forceset/tau_hip_rotation_l	/forceset/tau_knee_flexion_l	/forceset/tau_ankle_angle_l	/forceset/tau_subtalar_angle_l	/forceset/tau_lumbar_extension	lambda_cid13_p0	lambda_cid13_p1	lambda_cid13_p2	lambda_cid13_p3	lambda_cid13_p4	lambda_cid13_p5	lambda_cid14_p0	/jointset/ground_pelvis/pelvis_tilt/accel	/jointset/ground_pelvis/pelvis_tx/accel	/jointset/ground_pelvis/pelvis_ty/accel	/jointset/hip_l/hip_flexion_l/accel	/jointset/hip_l/hip_adduction_l/accel	/jointset/hip_l/hip_rotation_l/accel	/jointset/back/lumbar_extension/accel	/jointset/patellofemoral_l/patellar_flexion_l/accel	/jointset/knee_l/knee_flexion_l/accel	/jointset/knee_l/knee_adduction_l/accel	/jointset/knee_l/knee_rotation_l/accel	/jointset/ankle_l/ankle_angle_l/accel	/jointset/subtalar_l/subtalar_angle_l/accel	gamma_cid13_p0	gamma_cid13_p1	gamma_cid13_p2	gamma_cid13_p3	gamma_cid13_p4	gamma_cid13_p5	gamma_cid14_p0
0	-0.03679092677371612	0.05666356325600412	0.9203421557803908	0.3085816938045678	-0.2956310136579394	-0.301401233521284	-0.3879492264334186	0.2499269421184999	0.2499269421184919	-0.1745327716302005	-0.1743305596049521	-0.0008036623358878681	0.0004447653365649488	0	0	0	0	0	0	0	0	0	0	0	0	0	0.07387227846607881	-0.05192019645433359	-0.01999312150035874	-0.2445491992309499	0.1894661025898643	-0.01133442745487329	0.0007772136242749795	17.5977067282054	-0.6919043274114438	2.549542142766726	10.11116057713077	-620.8168909726489	-76.71555891381739	-23.19005427298629	-1.013326145140715	-2.063690716423792	-0.9362735551532196	9.409823937716636	-0.8527225249817552	3.350830646073084	-7.386998611159411	9.520075601118611	9.520075601118812	1.290244685056767	-0.09845547935428313	1.652069864370072	-0.35345010938691	-2.728985073260598e-09	1.450829337871334e-07	7.979969574112007e-08	-1.212420850716738e-08	1.253215728121499e-07	-8.331218130853058e-09	9.117699556561971e-11
0.01	-0.03683753511456287	0.05656201621660745	0.9202964355181444	0.3090398267183534	-0.2956736214790088	-0.3012332139697872	-0.3883161702241535	0.250393256341408	0.2503932563413985	-0.1744716506337644	-0.1743320298666408	-0.0007229836625290414	0.0004264501347995325	-0.009250354397670923	-0.02016434003050393	-0.009102192658522475	0.09110176120035181	-0.008459345430267258	0.03343650824601573	-0.07278843902164883	0.09280938396794795	0.09280938396795019	0.0121908473097439	-0.0002821957979024859	0.0161239189379826	-0.003601222070805106	0.06626277788652034	-0.05574537357403139	-0.01896719040569686	-0.2375839757593641	0.1799739080311836	-0.002592605700762462	0.007752509569996673	14.74365298256327	-3.983944396082221	3.068890409701404	10.21420783778189	-623.9872287821541	-82.91490752362918	-23.19547830359712	-0.8702022460022287	-1.97104789443641	-0.8908880882830885	8.881622106752744	-0.8332433375526707	3.314945969993806	-7.134718678468796	9.093350684505644	9.093350684505808	1.178535037703963	0.008685600826427664	1.590784235653501	-0.3542179407895173	-3.23996905398932e-08	1.545734653416607e-07	1.451801106774744e-07	2.082102405794637e-08	-1.855960402059436e-09	-4.863970645457912e-08	-5.71856835738e-09
0.02	-0.03697450943117968	0.05626317732729057	0.9201609541358964	0.3103932312232492	-0.2957989633114818	-0.3007358523246041	-0.3893929888312674	0.2517740605819669	0.2517740605819663	-0.1742896151074636	-0.1743359646401439	-0.0004814195343623467	0.000373970775353602	-0.01807319515218242	-0.03945836998404439	-0.01795222400031185	0.1790543182230306	-0.01654680228067465	0.06586841873715049	-0.1419749632753128	0.1828980035308065	0.1828980035308087	0.02418290597031873	-0.0004929023624191775	0.03217709096160879	-0.006832831536099336	0.05865327730697205	-0.05957055069372495	-0.01794125931101336	-0.2306187522877744	0.1704817134725084	0.006149216053354358	0.01472780551572312	11.96306877099087	-7.287184476492637	3.588123501920176	10.20442308757373	-626.058676711467	-89.0230317503203	-23.21138555869883	-0.9278234165086017	-1.889628701031298	-0.8858412918066034	8.779983102182051	-0.7783448090097805	3.149911095096877	-6.666615657562309	8.975922720100762	8.975922720100511	1.250486955222967	-0.08415763267715486	1.637920481498569	-0.2795275882848102	-6.207039600652579e-08	1.64063996896188e-07	2.105605256138287e-07	5.376625662306013e-08	-1.290334936162687e-07	-8.894819477830518e-08	-1.152831371032562e-08
0.03	-0.03719806291251609	0.05577555951677474	0.9199378987669167	0.312611615667859	-0.2960034117374036	-0.2999194186479455	-0.3911451481184164	0.2540427842662779	0.2540427842662758	-0.173988923298063	-0.1743420586553653	-7.984200109261404e-05	0.0002908635670007196	-0.02658922148953827	-0.05793867156418978	-0.02664548684516378	0.264177493504531	-0.0242976791947774	0.09726291477782403	-0.2080338147420232	0.2704398080693259	0.2704398080693198	0.03587308936628495	-0.0007208313333682877	0.04810651641529066	-0.009752498381213361	0.05359675264665215	-0.05519305972786916	-0.01744311756133974	-0.2275974631357734	0.1688586344668827	0.004633765305496443	0.01948979007004388	11.34981698028341	-6.560944415913176	3.517226719420964	9.606158990737502	-627.3659542571103	-86.81114716832363	-23.23705264563073	-0.8062568630439172	-1.80824191743704	-0.8590906588080669	8.311713280875795	-0.7667305118193856	3.110883993093756	-6.512057978988998	8.582272860662806	8.582272860661707	1.115977580725485	0.008681169479963691	1.565669303743144	-0.2928194405414641	-8.475690310882673e-08	1.39795764181945e-07	2.790275028845229e-07	7.152136559965844e-08	-2.162520092601616e-07	-1.358202512091668e-07	-2.17180604656464e-08
0.04	-0.03750532958137311	0.05510693648427067	0.9196283063938916	0.3156678775732268	-0.2962840232083077	-0.2987937069839708	-0.3935452035377871	0.257174718703961	0.2571747187039605	-0.1735737909449111	-0.1743502736205367	0.0004800729320018092	0.0001796330486133132	-0.0348158326546511	-0.07565941438169047	-0.0352596248093708	0.3466298103756981	-0.03177941127723444	0.1277240162001441	-0.2715541897192469	0.3555401542052565	0.3555401542052436	0.04707101471993268	-0.0009170923529678426	0.06384457092657621	-0.0124574935429989	0.04854022798633141	-0.05081556876201519	-0.01694497581167191	-0.2245761739837731	0.1672355554612568	0.003118314557636684	0.02425177462436588	10.80435602550948	-5.843829394216385	3.444649473151	8.896102712343005	-627.6693843887864	-84.51153589601934	-23.27161990749661	-0.8699403820597729	-1.737716948502552	-0.8700163156776255	8.245811420115402	-0.7245158426806291	2.963232171426174	-6.158920359664851	8.487631039583055	8.487631039583093	1.1520353467593	-0.07782404240726759	1.599646293019099	-0.236593251619174	-1.072994061211414e-07	1.148314744724697e-07	3.475581206157189e-07	8.89632761517513e-08	-3.026466276345635e-07	-1.828276389412064e-07	-3.199811652823265e-08
